<svg width="148" height="36" viewBox="0 0 148 36" fill="none" xmlns="http://www.w3.org/2000/svg">
<g clip-path="url(#clip0_144_23126)">
<path d="M128.231 23.1128L148.001 12.7699V25.5404L128.231 35.9995V23.1128Z" fill="#0328fc"/>
<path d="M138.151 5.36965L118.062 -0.000274658V12.8204L138.151 18.1237V5.36965Z" fill="#0328fc"/>
<path d="M21.7141 10.4547L14.671 25.4047H7.59409C6.1711 25.3998 5.02131 24.2533 5.0263 22.8435C5.02761 22.4774 5.10844 22.1158 5.26303 21.7836L10.596 10.4547H5.0612L0.718728 19.6906C-1.05936 23.4549 0.579893 27.9342 4.38015 29.6955C5.38638 30.1619 6.48394 30.4039 7.59488 30.4047H17.8739L27.2644 10.4713L21.7136 10.4547H21.7141Z" fill="#ffffff"/>
<path d="M69.5662 10.4547L62.5229 25.4047H55.4462C54.0232 25.3998 52.8734 24.253 52.8784 22.8435C52.8797 22.4774 52.9606 22.1158 53.1151 21.7836L58.4481 10.4547H52.8973L48.5541 19.6739C46.7852 23.4523 48.4433 27.936 52.258 29.6882C53.2571 30.1473 54.345 30.386 55.4465 30.388H65.7263L75.117 10.4547H69.5662Z" fill="#ffffff"/>
<path d="M45.2435 5.47131L38.1836 20.4214H30.4325L32.767 15.438H27.2162L20.1729 30.3881H25.7236L28.3612 25.4047H41.3692L46.0815 15.438L50.794 5.47131H45.2435Z" fill="#ffffff"/>
<path d="M61.9365 15.438C63.3259 15.438 64.452 14.3225 64.452 12.9462C64.452 11.5699 63.3259 10.4544 61.9365 10.4544C60.5471 10.4544 59.4209 11.5699 59.4209 12.9462V12.9465C59.4191 14.3207 60.5426 15.4362 61.9299 15.438C61.932 15.438 61.9344 15.438 61.9365 15.438Z" fill="#ffffff"/>
<path d="M14.6044 15.438C15.9938 15.438 17.12 14.3225 17.12 12.9462C17.12 11.5699 15.9938 10.4544 14.6044 10.4544C13.215 10.4544 12.0889 11.5699 12.0889 12.9462C12.087 14.3204 13.2103 15.4362 14.5976 15.438C14.6 15.438 14.6021 15.438 14.6044 15.438Z" fill="#ffffff"/>
<path d="M89.27 20.4214L92.2882 14.0261C92.875 12.7621 92.316 11.2663 91.04 10.685C90.7056 10.5326 90.3418 10.4541 89.9739 10.4547H77.3905L78.1687 20.4214L80.6331 15.438H86.0673L83.7195 20.4214H78.1687L77.3905 10.4547L72.568 20.5376C71.7605 22.2479 72.5056 24.2829 74.2325 25.0829C74.6931 25.2963 75.1957 25.4063 75.704 25.4047H81.3729L79.0243 30.388H84.5751L86.9229 25.4047H112.354L112.34 20.4214H89.27Z" fill="#ffffff"/>
</g>
<defs>
<clipPath id="clip0_144_23126">
<rect width="148" height="36" fill="white"/>
</clipPath>
</defs>
</svg>
